<?xml version="1.0" encoding="utf-8"?>
<!-- Generator: Adobe Illustrator 24.0.0, SVG Export Plug-In . SVG Version: 6.00 Build 0)  -->
<svg version="1.1" id="Layer_1" xmlns="http://www.w3.org/2000/svg" xmlns:xlink="http://www.w3.org/1999/xlink" x="0px" y="0px"
	 viewBox="0 0 1077.17 687.31" style="enable-background:new 0 0 1077.17 687.31;" xml:space="preserve">
<style type="text/css">
	.st0{fill:#FDBA12;}
	.st1{fill:#FFFFFF;}
</style>
<polyline class="st0" points="280.25,134.25 280.25,254.47 136.86,134.25 136.86,300.56 280.25,420.77 280.25,300.56 423.64,420.77 
	423.64,254.47 "/>
<polyline class="st1" points="546.44,177.11 546.44,224.04 546.22,224.04 511.22,177.11 495.34,177.11 495.34,254.47 512.73,254.47 
	512.73,207.77 512.95,207.77 548.04,254.47 563.84,254.47 563.84,177.11 "/>
<g>
	<path class="st1" d="M663.42,242.65c-4.92,0-5.69-3.55-5.69-9.35v-21.75h14.83v-11.37h-14.73v-16.37l-16.72,3.66v12.71h-7.68v11.37
		h7.56v21.4c0,9.14,0.23,13.72,3.8,17.95c3.01,3.57,8.02,5.02,14.28,5.02c5.13,0,10.05-0.99,14.28-2.9l2.14-1.01l-2.22-11.38
		C670.76,241.41,666.74,242.65,663.42,242.65"/>
	<path class="st1" d="M689.81,193.71c-4.24,0-9.04-3-9.04-8.35c0-5.46,4.46-8.59,9.04-8.59c4.48,0,8.92,3.13,8.92,8.47
		C698.74,190.59,694.05,193.71,689.81,193.71"/>
</g>
<rect x="681.58" y="200.18" class="st1" width="16.74" height="54.29"/>
<g>
	<path class="st1" d="M803.61,198.61c-6.57,0-12.71,2.25-17.83,6.26l-0.97-4.7h-14.78v54.29h16.74v-36.46
		c3.12-2.68,7.69-4.34,11.38-4.34c5.12,0,6.35,3.13,6.35,7.8v33h16.76v-36C821.27,206.31,815.9,198.61,803.61,198.61"/>
</g>
<polyline class="st1" points="895.03,177.7 895.03,254.46 911.78,254.46 911.78,174.08 "/>
<g>
	<path class="st1" d="M610.2,237.74c-1.33,1.68-5.35,4.68-9.36,4.68c-8.47,0-10.27-8.25-10.27-15.16c0-10.36,5.13-14.8,10.62-14.8
		c3.34,0,7.02,1.98,9.01,3.77V237.74z M628.61,243.21c-1.21,0-1.67-0.79-1.67-1.9v-41.12h-14.47l-1.16,4.68
		c-2.34-3.35-7.37-6.25-13.6-6.25c-12.27,0-24.55,10.04-24.55,29.77c0,14.82,7.48,27.53,23.54,27.53c5.47,0,12.61-3.12,15.62-6.58
		h0.22c1.43,3.23,4.11,5.13,10.71,5.13h8.6v-11.26"/>
	<path class="st1" d="M866.04,237.74c-1.33,1.68-5.34,4.68-9.36,4.68c-8.47,0-10.27-8.25-10.27-15.16c0-10.36,5.13-14.8,10.61-14.8
		c3.35,0,7.04,1.98,9.03,3.77V237.74z M884.45,243.21c-1.23,0-1.67-0.79-1.67-1.9v-41.12H868.3l-1.14,4.68
		c-2.34-3.35-7.37-6.25-13.62-6.25c-12.26,0-24.55,10.04-24.55,29.77c0,14.82,7.49,27.53,23.55,27.53c5.46,0,12.61-3.12,15.62-6.58
		h0.22c1.45,3.23,4.13,5.13,10.71,5.13h8.57v-11.26"/>
	<path class="st1" d="M733.95,242.77c-8.25,0-10.61-7.48-10.61-15.73c0-8.13,2.68-15.27,10.93-15.27c8.27,0,10.62,7.26,10.62,15.51
		C744.9,235.41,742.22,242.77,733.95,242.77 M734.52,198.62c-18.1,0-28.45,12.14-28.45,28.54c0,16.6,8.81,28.76,27.66,28.76
		c18.08,0,28.44-12.16,28.44-28.54C762.17,210.76,753.37,198.62,734.52,198.62"/>
	<path class="st1" d="M528.92,340.27c-2.44,0.88-5.81,1.11-9.14,1.11h-6.92v-20.85c1.77,0,4.23-0.1,5.57-0.1
		c4.34,0,7.59,0.1,10.83,1.55c3.23,1.45,5.47,4.56,5.47,9.25C534.73,335.7,532.37,338.93,528.92,340.27 M512.85,290.9h5.47
		c6.8,0,10.93,2.66,10.93,8.02c0,7.02-3.8,9.38-12.17,9.38h-4.23V290.9z M534.61,312.64v-0.12c7.71-1.68,12.04-8.48,12.04-16.05
		c0-13.17-9.7-18.96-29.57-18.96h-21.74v77.36h25.64c16.06,0,31.69-4.34,31.69-22.85C552.67,320.89,545.1,313.74,534.61,312.64"/>
</g>
<polyline class="st1" points="718.38,323.66 735.11,300.59 717.02,300.59 703.41,322.33 703.21,322.33 703.21,274.45 686.47,278.09 
	686.47,354.87 703.21,354.87 703.21,330.01 703.41,330.01 717.32,354.87 737.29,354.87 "/>
<g>
	<path class="st1" d="M658.02,299.02c-6.6,0-12.73,2.24-17.88,6.25l-0.94-4.67h-14.78v54.27h16.74v-36.46
		c3.12-2.68,7.69-4.34,11.38-4.34c5.12,0,6.36,3.13,6.36,7.81v32.99h16.72v-36C675.63,306.73,670.29,299.02,658.02,299.02"/>
	<path class="st1" d="M595.42,338.16c-1.33,1.67-5.34,4.68-9.36,4.68c-8.48,0-10.27-8.25-10.27-15.16
		c0-10.37,5.13-14.83,10.61-14.83c3.34,0,7.04,2.02,9.03,3.79V338.16z M613.84,343.62c-1.21,0-1.67-0.78-1.67-1.89v-41.12h-14.48
		l-1.14,4.68c-2.34-3.35-7.37-6.26-13.6-6.26c-12.29,0-24.56,10.04-24.56,29.77c0,14.82,7.48,27.52,23.54,27.52
		c5.47,0,12.61-3.12,15.64-6.57h0.22c1.45,3.25,4.11,5.13,10.71,5.13h8.59v-11.26"/>
</g>
<g>
	<path class="st1" d="M172.04,538.91l-4-11.55H149.3l-4,11.55h-3.43l15.25-42.34h3.3l15.31,42.34H172.04z M158.7,500.44h-0.06
		l-8.13,23.61h16.33L158.7,500.44z"/>
	<path class="st1" d="M208.64,539.61c-3.94,0-7.94-0.95-10.67-2.41l0.19-3.87c2.54,1.4,5.97,2.79,10.23,2.79
		c6.99,0,10.48-3.55,10.48-8.06s-4.13-7.05-9.02-8.95l-1.46-0.57c-5.4-2.09-10.1-4.82-10.1-11.93c0-6.73,5.21-10.73,13.15-10.73
		c4.07,0,6.8,0.83,9.21,2.03l-0.25,3.68c-2.99-1.33-5.72-2.22-8.7-2.22c-5.72,0-9.72,2.03-9.72,7.24c0,4.51,3.3,6.54,8.58,8.57
		l1.46,0.57c6.23,2.41,10.55,5.78,10.55,12.38C222.55,534.78,217.47,539.61,208.64,539.61z"/>
	<path class="st1" d="M243.14,539.67c-9.28,0-11.95-5.27-11.95-13.14v-19.36h3.37v19.49c0,5.9,2.22,9.84,8.64,9.84
		c6.73,0,8.51-3.87,8.51-9.84v-19.49h3.37v19.36C255.09,534.66,251.66,539.67,243.14,539.67z"/>
	<path class="st1" d="M278.79,539.61c-5.46,0-8.26-3.17-9.66-5.59h-0.06l-0.25,4.89h-3.18c0,0,0.25-1.9,0.25-9.14v-35.61h3.37V512
		h0.06c1.97-2.67,4.26-5.52,10.1-5.52c8.96,0,11.69,7.55,11.69,16.31C291.11,531.48,288.19,539.61,278.79,539.61z M287.55,520.82
		c0-6.73-3.49-11.17-8.96-11.17c-5.08,0-9.34,4.82-9.34,9.9v6.54c0,6.03,4.7,10.35,9.21,10.35c6.48,0,9.09-5.33,9.09-11.68V520.82z"
		/>
	<path class="st1" d="M306.36,539.61c-3.11,0-5.85-0.76-8.39-2.22l0.25-3.3c2.67,1.52,5.15,2.41,8.26,2.41
		c5.53,0,7.81-2.54,7.81-5.65c0-3.62-2.86-5.01-6.99-6.67l-2.03-0.83c-4-1.65-7.24-3.94-7.24-8.7c0-4.25,2.8-8.19,10.42-8.19
		c3.49,0,6.04,1.02,7.75,2.03l-0.25,3.43c-3.3-2.03-6.04-2.35-7.62-2.35c-4.77,0-6.8,1.97-6.8,4.82c0,3.05,2.29,4.51,6.86,6.35
		l2.03,0.83c4.38,1.84,7.37,4.06,7.37,8.89C317.8,535.86,314.18,539.61,306.36,539.61z"/>
	<path class="st1" d="M328.47,500.57c-1.52,0-2.8-1.21-2.8-2.73s1.27-2.79,2.8-2.79c1.46,0,2.73,1.27,2.73,2.79
		S329.93,500.57,328.47,500.57z M326.76,538.91v-31.74h3.37v31.74H326.76z"/>
	<path class="st1" d="M361.07,538.91l-0.32-4.82h-0.06c-1.84,2.73-4.32,5.52-9.91,5.52c-9.02,0-11.82-7.55-11.82-16.31
		c0-8.7,2.92-16.82,12.33-16.82c5.46,0,8.26,3.24,9.4,5.27h0.06v-17.58h3.37v36.05c0,6.28,0.32,8.7,0.32,8.7H361.07z M360.75,519.99
		c0-6.03-4.7-10.35-9.02-10.35c-6.48,0-9.21,5.33-9.21,11.68v3.94c0,6.73,3.49,11.17,8.96,11.17c4.96,0,9.28-4.82,9.28-9.84V519.99z
		"/>
	<path class="st1" d="M376.95,500.57c-1.52,0-2.8-1.21-2.8-2.73s1.27-2.79,2.8-2.79c1.46,0,2.73,1.27,2.73,2.79
		S378.41,500.57,376.95,500.57z M375.24,538.91v-31.74h3.37v31.74H375.24z"/>
	<path class="st1" d="M409.48,538.91l-0.25-5.01h-0.06c-1.91,2.98-4.19,5.71-9.85,5.71c-8.9,0-11.88-7.55-11.88-16.31
		c0-8.7,3.11-16.82,12.39-16.82c5.46,0,8.07,3.17,9.4,5.59h0.06l0.19-4.89h3.24c0,0-0.32,2.73-0.32,9.08v13.96
		c0,5.33,0.32,8.7,0.32,8.7H409.48z M409.04,519.99c0-6.03-4.32-10.35-8.77-10.35c-6.54,0-9.28,5.33-9.28,11.68v3.94
		c0,6.73,3.56,11.17,9.02,11.17c5.02,0,9.02-4.82,9.02-9.84V519.99z"/>
	<path class="st1" d="M436.93,510.03c0,0-0.89-0.13-1.72-0.13c-5.53,0-9.02,4.95-9.02,8.89v20.12h-3.37v-31.74h3.3v5.27h0.06
		c-0.13,0.25,2.54-5.97,9.72-5.97c0.51,0,1.21,0.13,1.21,0.13L436.93,510.03z"/>
	<path class="st1" d="M451.16,551.92h-3.94c3.18-6.03,6.16-13.01,6.16-13.01l-12.58-31.74h3.75l10.42,27.99h0.06l10.48-27.99h3.62
		C469.15,507.17,459.81,532.94,451.16,551.92z"/>
	<path class="st1" d="M502.38,539.61c-9.47,0-12.83-6.47-12.83-16.44c0-9.71,3.62-16.69,13.09-16.69c9.47,0,12.83,6.47,12.83,16.44
		C515.46,532.69,511.84,539.61,502.38,539.61z M511.91,520.88c0-7.17-3.49-11.3-9.34-11.3c-5.91,0-9.47,4.38-9.47,11.55v4.06
		c0,7.17,3.43,11.3,9.34,11.3c5.85,0,9.47-4.38,9.47-11.55V520.88z"/>
	<path class="st1" d="M530.65,510.22v28.69h-3.37v-28.69h-7.88v-3.05h7.88v-4.57c0-5.4,2.48-9.14,8.07-9.14
		c1.52,0,3.62,0.38,3.62,0.38l-0.19,3.05c0,0-1.4-0.32-3.24-0.32c-3.56,0-4.89,2.6-4.89,6.22v4.38h9.02v3.05H530.65z"/>
	<path class="st1" d="M583.32,538.91c-8.32-9.01-18.74-21.14-18.74-21.14v21.14h-3.5v-42.34h3.5v19.8l17.22-19.8h4.57l-17.92,20.44
		c0,0,7.43,8.51,19.89,21.9H583.32z"/>
	<path class="st1" d="M607.6,539.61c-13.41,0-15.25-10.73-15.25-21.71c0-10.35,1.91-22.03,16.01-22.03c4.32,0,6.61,1.08,8.9,2.09
		l-0.19,3.62c-2.67-1.27-5.21-2.22-8.51-2.22c-8.2,0-12.58,5.14-12.58,14.92v6.86c0,10.41,4.76,14.98,12.58,14.98
		c3.37,0,6.1-1.46,8.96-3.11l0.25,3.75C615.03,538.4,611.85,539.61,607.6,539.61z"/>
	<path class="st1" d="M636,538.91h-10.61v-42.34h10.93c6.1,0,12.45,1.97,12.45,10.03c0,5.97-3.05,8.38-7.5,9.71v0.06
		c4.26,0.7,8.83,3.11,8.83,10.16C650.1,534.97,645.02,538.91,636,538.91z M636.12,499.87h-7.24v15.17h6.48
		c6.29,0,9.79-2.86,9.79-8.06C645.15,501.46,641.4,499.87,636.12,499.87z M635.62,518.41h-6.73v17.2h6.86
		c6.54,0,10.74-2.29,10.74-8.63C646.48,520.82,642.35,518.41,635.62,518.41z"/>
	<path class="st1" d="M688.04,539.61c-13.41,0-15-10.79-15-21.71c0-10.09,1.65-22.03,16.71-22.03c5.27,0,8.13,1.4,10.48,2.48
		l-0.25,3.68c-2.41-1.27-5.78-2.67-10.04-2.67c-8.96,0-13.28,5.21-13.28,15.11v6.79c0,11.04,5.15,14.85,11.75,14.85
		c5.15,0,9.15-2.16,9.15-2.16v-13.52h-8.39v-3.49h11.88v18.92C701.06,535.86,695.98,539.61,688.04,539.61z"/>
	<path class="st1" d="M725.14,510.03c0,0-0.89-0.13-1.72-0.13c-5.53,0-9.02,4.95-9.02,8.89v20.12h-3.37v-31.74h3.3v5.27h0.06
		c-0.13,0.25,2.54-5.97,9.72-5.97c0.51,0,1.21,0.13,1.21,0.13L725.14,510.03z"/>
	<path class="st1" d="M743.5,539.61c-9.47,0-12.83-6.47-12.83-16.44c0-9.71,3.62-16.69,13.09-16.69c9.47,0,12.83,6.47,12.83,16.44
		C756.59,532.69,752.97,539.61,743.5,539.61z M753.03,520.88c0-7.17-3.49-11.3-9.34-11.3c-5.91,0-9.47,4.38-9.47,11.55v4.06
		c0,7.17,3.43,11.3,9.34,11.3c5.85,0,9.47-4.38,9.47-11.55V520.88z"/>
	<path class="st1" d="M777.18,539.67c-9.28,0-11.95-5.27-11.95-13.14v-19.36h3.37v19.49c0,5.9,2.22,9.84,8.64,9.84
		c6.74,0,8.51-3.87,8.51-9.84v-19.49h3.37v19.36C789.12,534.66,785.69,539.67,777.18,539.67z"/>
	<path class="st1" d="M812.13,539.61c-5.46,0-8.26-3.24-9.4-5.27h-0.06v17.58h-3.37v-44.75h3.24v5.08h0.06
		c1.91-2.98,4.45-5.78,10.1-5.78c8.96,0,11.75,7.55,11.75,16.31C824.45,531.48,821.53,539.61,812.13,539.61z M820.89,520.82
		c0-6.73-3.43-11.17-8.96-11.17c-4.89,0-9.28,4.82-9.28,9.84v6.6c0,6.03,4.7,10.35,9.02,10.35c6.48,0,9.21-5.33,9.21-11.68V520.82z"
		/>
	<path class="st1" d="M858.57,521.71h-6.35v17.2h-3.5v-42.34h10.87c8.51,0,13.66,3.68,13.66,12.19
		C873.25,517.52,868.1,521.71,858.57,521.71z M859.33,499.87h-7.18v18.54h6.1c8.96,0,11.31-3.68,11.31-9.39
		C869.56,502.66,866.32,499.87,859.33,499.87z"/>
	<path class="st1" d="M881.38,538.91v-42.34h3.43v38.85l17.41,0.06v3.43H881.38z"/>
	<path class="st1" d="M923.19,539.61c-13.41,0-15.25-10.73-15.25-21.71c0-10.35,1.91-22.03,16.01-22.03c4.32,0,6.61,1.08,8.9,2.09
		l-0.19,3.62c-2.67-1.27-5.21-2.22-8.51-2.22c-8.2,0-12.58,5.14-12.58,14.92v6.86c0,10.41,4.76,14.98,12.58,14.98
		c3.37,0,6.1-1.46,8.96-3.11l0.25,3.75C930.62,538.4,927.45,539.61,923.19,539.61z"/>
</g>
</svg>
